<svg width="174" height="218" viewBox="0 0 174 218" fill="none" xmlns="http://www.w3.org/2000/svg">
<path d="M106.071 100.044L13.9071 154.134C7.96207 157.609 0.0711058 152.544 0.0711058 146.044L0.071106 73.544C0.071106 68.044 -0.928895 67.5441 4.57111 63.5441L91.0711 4.54413C102.571 -3.45581 113.071 -0.955857 113.071 12.5441V88.0441C113.071 96.0441 113.071 96.0441 106.071 100.044Z" fill="#001870"/>
<path d="M135.071 101.044L158.571 142.044C162.571 148.544 172.071 146.544 172.071 138.044L173.071 78.0441C173.071 72.5441 173.071 72.5441 169.071 63.7679L152.071 28.044C143.571 11.044 132.571 13.044 132.071 32.5441V90.8019C132.571 96.044 132.571 96.044 135.071 101.044Z" fill="#10D8E2"/>
<path d="M103.071 217.044C103.071 217.044 51.3152 196.68 27.0466 186.544C20.004 184.075 18.5773 174.293 25.0711 170.544L110.071 120.544C117.571 116.544 121.596 118.044 125.071 124.044L159.571 184.044C160.571 186.044 160.571 190.544 158.071 192.044L109.071 217.044C106.071 218.044 106.071 218.044 103.071 217.044Z" fill="#008DC9"/>
</svg>
