<svg width="130" height="130" viewBox="0 0 130 130" fill="none" xmlns="http://www.w3.org/2000/svg">
<path d="M76.7391 59.7157L21.3569 92.0017C17.7845 94.0759 13.0427 91.0526 13.0427 87.1728L13.0427 43.898C13.0427 40.6151 12.4418 40.3167 15.7468 37.9291L67.7255 2.71237C74.6359 -2.06276 80.9455 -0.570546 80.9455 7.48748V52.553C80.9455 57.3282 80.9455 57.3282 76.7391 59.7157Z" fill="#001870"/>
<path d="M94.1655 60.3125L108.287 84.7854C110.691 88.6651 116.399 87.4713 116.399 82.3976L117 46.584C117 43.3011 117 43.3011 114.596 38.0627L104.381 16.7393C99.2732 6.59207 92.6632 7.78584 92.3628 19.4253V54.1991C92.6632 57.3281 92.6632 57.3281 94.1655 60.3125Z" fill="#10D8E2"/>
<path d="M74.9363 129.552C74.9363 129.552 43.8357 117.397 29.2525 111.347C25.0205 109.873 24.1632 104.035 28.0654 101.797L79.1427 71.952C83.6495 69.5645 86.0679 70.4599 88.1563 74.0412L108.888 109.855C109.489 111.049 109.489 113.735 107.986 114.63L78.5418 129.552C76.7391 130.149 76.739 130.149 74.9363 129.552Z" fill="#008DC9"/>
</svg>
